%TF.GenerationSoftware,KiCad,Pcbnew,8.0.3*%
%TF.CreationDate,2026-01-07T02:22:38-05:00*%
%TF.ProjectId,lux-module,6c75782d-6d6f-4647-956c-652e6b696361,A*%
%TF.SameCoordinates,Original*%
%TF.FileFunction,Soldermask,Top*%
%TF.FilePolarity,Negative*%
%FSLAX46Y46*%
G04 Gerber Fmt 4.6, Leading zero omitted, Abs format (unit mm)*
G04 Created by KiCad (PCBNEW 8.0.3) date 2026-01-07 02:22:38*
%MOMM*%
%LPD*%
G01*
G04 APERTURE LIST*
G04 Aperture macros list*
%AMRoundRect*
0 Rectangle with rounded corners*
0 $1 Rounding radius*
0 $2 $3 $4 $5 $6 $7 $8 $9 X,Y pos of 4 corners*
0 Add a 4 corners polygon primitive as box body*
4,1,4,$2,$3,$4,$5,$6,$7,$8,$9,$2,$3,0*
0 Add four circle primitives for the rounded corners*
1,1,$1+$1,$2,$3*
1,1,$1+$1,$4,$5*
1,1,$1+$1,$6,$7*
1,1,$1+$1,$8,$9*
0 Add four rect primitives between the rounded corners*
20,1,$1+$1,$2,$3,$4,$5,0*
20,1,$1+$1,$4,$5,$6,$7,0*
20,1,$1+$1,$6,$7,$8,$9,0*
20,1,$1+$1,$8,$9,$2,$3,0*%
G04 Aperture macros list end*
%ADD10C,0.501200*%
%ADD11C,0.010000*%
%ADD12RoundRect,0.135000X-0.135000X-0.185000X0.135000X-0.185000X0.135000X0.185000X-0.135000X0.185000X0*%
%ADD13RoundRect,0.140000X-0.140000X-0.170000X0.140000X-0.170000X0.140000X0.170000X-0.140000X0.170000X0*%
%ADD14C,2.200000*%
%ADD15RoundRect,0.135000X0.185000X-0.135000X0.185000X0.135000X-0.185000X0.135000X-0.185000X-0.135000X0*%
%ADD16RoundRect,0.075000X0.150000X0.075000X-0.150000X0.075000X-0.150000X-0.075000X0.150000X-0.075000X0*%
%ADD17R,0.254000X1.066800*%
%ADD18RoundRect,0.140000X0.140000X0.170000X-0.140000X0.170000X-0.140000X-0.170000X0.140000X-0.170000X0*%
G04 APERTURE END LIST*
D10*
%TO.C,J1*%
X138880600Y-52180000D02*
G75*
G02*
X138379400Y-52180000I-250600J0D01*
G01*
X138379400Y-52180000D02*
G75*
G02*
X138880600Y-52180000I250600J0D01*
G01*
X138880600Y-53430000D02*
G75*
G02*
X138379400Y-53430000I-250600J0D01*
G01*
X138379400Y-53430000D02*
G75*
G02*
X138880600Y-53430000I250600J0D01*
G01*
X138880600Y-54680000D02*
G75*
G02*
X138379400Y-54680000I-250600J0D01*
G01*
X138379400Y-54680000D02*
G75*
G02*
X138880600Y-54680000I250600J0D01*
G01*
D11*
X139131200Y-56431200D02*
X138128800Y-56431200D01*
X138128800Y-55428800D01*
X139131200Y-55428800D01*
X139131200Y-56431200D01*
G36*
X139131200Y-56431200D02*
G01*
X138128800Y-56431200D01*
X138128800Y-55428800D01*
X139131200Y-55428800D01*
X139131200Y-56431200D01*
G37*
%TD*%
D12*
%TO.C,R1*%
X134220000Y-56670000D03*
X135240000Y-56670000D03*
%TD*%
D13*
%TO.C,C2*%
X138500000Y-57670000D03*
X139460000Y-57670000D03*
%TD*%
D14*
%TO.C,H1*%
X132980000Y-59860000D03*
%TD*%
D15*
%TO.C,R2*%
X135160000Y-51660000D03*
X135160000Y-50640000D03*
%TD*%
D16*
%TO.C,U2*%
X136910000Y-54170000D03*
X136910000Y-53670000D03*
X136910000Y-53170000D03*
X135510000Y-53170000D03*
X135510000Y-54170000D03*
%TD*%
D17*
%TO.C,U1*%
X133590000Y-54340000D03*
X132940014Y-54340000D03*
X132290028Y-54340000D03*
X132290028Y-52689000D03*
X132940014Y-52689000D03*
X133590000Y-52689000D03*
%TD*%
D14*
%TO.C,H2*%
X133250000Y-48180000D03*
%TD*%
D18*
%TO.C,C1*%
X132930000Y-55770000D03*
X131970000Y-55770000D03*
%TD*%
M02*
