%TF.GenerationSoftware,KiCad,Pcbnew,8.0.3*%
%TF.CreationDate,2026-01-07T02:22:38-05:00*%
%TF.ProjectId,lux-module,6c75782d-6d6f-4647-956c-652e6b696361,A*%
%TF.SameCoordinates,Original*%
%TF.FileFunction,Legend,Bot*%
%TF.FilePolarity,Positive*%
%FSLAX46Y46*%
G04 Gerber Fmt 4.6, Leading zero omitted, Abs format (unit mm)*
G04 Created by KiCad (PCBNEW 8.0.3) date 2026-01-07 02:22:38*
%MOMM*%
%LPD*%
G01*
G04 APERTURE LIST*
%ADD10C,0.100000*%
%ADD11C,0.200000*%
%ADD12C,0.127000*%
G04 APERTURE END LIST*
D10*
X127110000Y-56960000D02*
X126680000Y-56670000D01*
X127110000Y-56370000D01*
X127110000Y-56960000D01*
G36*
X127110000Y-56960000D02*
G01*
X126680000Y-56670000D01*
X127110000Y-56370000D01*
X127110000Y-56960000D01*
G37*
X126570000Y-57670000D02*
X126140000Y-57380000D01*
X126570000Y-57080000D01*
X126570000Y-57670000D01*
G36*
X126570000Y-57670000D02*
G01*
X126140000Y-57380000D01*
X126570000Y-57080000D01*
X126570000Y-57670000D01*
G37*
D11*
X127000000Y-57370000D02*
X126600000Y-57370000D01*
X127540000Y-56660000D02*
X127140000Y-56660000D01*
D10*
X134070000Y-59850000D02*
G75*
G02*
X131870000Y-59850000I-1100000J0D01*
G01*
X131870000Y-59850000D02*
G75*
G02*
X134070000Y-59850000I1100000J0D01*
G01*
X135135752Y-60440000D02*
X135135752Y-59440000D01*
X134125752Y-59960000D02*
X135125752Y-59960000D01*
X134340000Y-48190000D02*
G75*
G02*
X132140000Y-48190000I-1100000J0D01*
G01*
X132140000Y-48190000D02*
G75*
G02*
X134340000Y-48190000I1100000J0D01*
G01*
G36*
X129295516Y-53202984D02*
G01*
X129211741Y-53202984D01*
X129211741Y-54133061D01*
X129295516Y-54133061D01*
X129295516Y-53202984D01*
G37*
G36*
X139221957Y-50201000D02*
G01*
X139312400Y-50201000D01*
X139312400Y-49899408D01*
X139313511Y-49863975D01*
X139316845Y-49830849D01*
X139324993Y-49796295D01*
X139332575Y-49780755D01*
X139357849Y-49755924D01*
X139367281Y-49751177D01*
X139400768Y-49742803D01*
X139425924Y-49741432D01*
X139461297Y-49745414D01*
X139495667Y-49756316D01*
X139503203Y-49759555D01*
X139535450Y-49775777D01*
X139566625Y-49795273D01*
X139580652Y-49805375D01*
X139580652Y-50201000D01*
X139671095Y-50201000D01*
X139671095Y-49456938D01*
X139580652Y-49456938D01*
X139580652Y-49727755D01*
X139551276Y-49705692D01*
X139521213Y-49687225D01*
X139493286Y-49673557D01*
X139458969Y-49661576D01*
X139423979Y-49655124D01*
X139400279Y-49653896D01*
X139364186Y-49656383D01*
X139327785Y-49665316D01*
X139296556Y-49680746D01*
X139267606Y-49705870D01*
X139247634Y-49734711D01*
X139233369Y-49769258D01*
X139225568Y-49804167D01*
X139222135Y-49843444D01*
X139221957Y-49855469D01*
X139221957Y-50201000D01*
G37*
G36*
X138855429Y-49654189D02*
G01*
X138895394Y-49658587D01*
X138932077Y-49668262D01*
X138965478Y-49683214D01*
X138995597Y-49703444D01*
X139022435Y-49728951D01*
X139041743Y-49753725D01*
X139060592Y-49786936D01*
X139074729Y-49823946D01*
X139082910Y-49857689D01*
X139087819Y-49894070D01*
X139089455Y-49933090D01*
X139088408Y-49964553D01*
X139084154Y-50001494D01*
X139076627Y-50035780D01*
X139063275Y-50073418D01*
X139045211Y-50107234D01*
X139022435Y-50137228D01*
X139009426Y-50150580D01*
X138980948Y-50173344D01*
X138949187Y-50190855D01*
X138914145Y-50203113D01*
X138875821Y-50210118D01*
X138841378Y-50211942D01*
X138827430Y-50211650D01*
X138787725Y-50207272D01*
X138751230Y-50197641D01*
X138717945Y-50182756D01*
X138687870Y-50162619D01*
X138661004Y-50137228D01*
X138641598Y-50112499D01*
X138622653Y-50079320D01*
X138608443Y-50042318D01*
X138600221Y-50008563D01*
X138595287Y-49972154D01*
X138593642Y-49933090D01*
X138686992Y-49933090D01*
X138687153Y-49945462D01*
X138689567Y-49980256D01*
X138696045Y-50016442D01*
X138708278Y-50051988D01*
X138728196Y-50084569D01*
X138744677Y-50101826D01*
X138773501Y-50121016D01*
X138807248Y-50132173D01*
X138841378Y-50135347D01*
X138863407Y-50134095D01*
X138899104Y-50125530D01*
X138929716Y-50108850D01*
X138955244Y-50084056D01*
X138962546Y-50073985D01*
X138978508Y-50042999D01*
X138989362Y-50006008D01*
X138994669Y-49968715D01*
X138996106Y-49933090D01*
X138995947Y-49920452D01*
X138993573Y-49885015D01*
X138987202Y-49848367D01*
X138975173Y-49812674D01*
X138955586Y-49780413D01*
X138939173Y-49763447D01*
X138910225Y-49744580D01*
X138876085Y-49733610D01*
X138841378Y-49730490D01*
X138819447Y-49731709D01*
X138783885Y-49740046D01*
X138753354Y-49756281D01*
X138727854Y-49780413D01*
X138718277Y-49793720D01*
X138702953Y-49825285D01*
X138693736Y-49858322D01*
X138688428Y-49896414D01*
X138686992Y-49933090D01*
X138593642Y-49933090D01*
X138594695Y-49901663D01*
X138598971Y-49864754D01*
X138606536Y-49830483D01*
X138619956Y-49792841D01*
X138638112Y-49758997D01*
X138661004Y-49728951D01*
X138674036Y-49715538D01*
X138702507Y-49692669D01*
X138734187Y-49675078D01*
X138769077Y-49662764D01*
X138807176Y-49655728D01*
X138841378Y-49653896D01*
X138855429Y-49654189D01*
G37*
G36*
X137673311Y-50201000D02*
G01*
X137763754Y-50201000D01*
X137763754Y-49899408D01*
X137764671Y-49863753D01*
X137767002Y-49833414D01*
X137773587Y-49798672D01*
X137780167Y-49782636D01*
X137803212Y-49756899D01*
X137811796Y-49751861D01*
X137844802Y-49742899D01*
X137871465Y-49741432D01*
X137907086Y-49745564D01*
X137940399Y-49756878D01*
X137947547Y-49760239D01*
X137978385Y-49777073D01*
X138009224Y-49797294D01*
X138023457Y-49807769D01*
X138021064Y-49833243D01*
X138020038Y-49861966D01*
X138020038Y-50201000D01*
X138110481Y-50201000D01*
X138110481Y-49899408D01*
X138111293Y-49865129D01*
X138113729Y-49832730D01*
X138120314Y-49798282D01*
X138126894Y-49782294D01*
X138149939Y-49756603D01*
X138158524Y-49751690D01*
X138193554Y-49742644D01*
X138218192Y-49741432D01*
X138253011Y-49745414D01*
X138285577Y-49756316D01*
X138292564Y-49759555D01*
X138322708Y-49775777D01*
X138352852Y-49795273D01*
X138366765Y-49805375D01*
X138366765Y-50201000D01*
X138457208Y-50201000D01*
X138457208Y-49664838D01*
X138366765Y-49664838D01*
X138366765Y-49724335D01*
X138337655Y-49703249D01*
X138305991Y-49684163D01*
X138282306Y-49672531D01*
X138249993Y-49661175D01*
X138216140Y-49655060D01*
X138192718Y-49653896D01*
X138156966Y-49656502D01*
X138122481Y-49665289D01*
X138099710Y-49675951D01*
X138071810Y-49696553D01*
X138048959Y-49725052D01*
X138042606Y-49736816D01*
X138012506Y-49714034D01*
X137983948Y-49695120D01*
X137951137Y-49677255D01*
X137942588Y-49673386D01*
X137907847Y-49661509D01*
X137871326Y-49655114D01*
X137845990Y-49653896D01*
X137809470Y-49656440D01*
X137773181Y-49665579D01*
X137742706Y-49681364D01*
X137715369Y-49707067D01*
X137696969Y-49736282D01*
X137683825Y-49770754D01*
X137676638Y-49805229D01*
X137673475Y-49843730D01*
X137673311Y-49855469D01*
X137673311Y-50201000D01*
G37*
G36*
X137303040Y-49654569D02*
G01*
X137337259Y-49658683D01*
X137375400Y-49668556D01*
X137410356Y-49683815D01*
X137442127Y-49704460D01*
X137470711Y-49730490D01*
X137491398Y-49755687D01*
X137511594Y-49789395D01*
X137526741Y-49826890D01*
X137535506Y-49861028D01*
X137540766Y-49897795D01*
X137542519Y-49937193D01*
X137541346Y-49969167D01*
X137536582Y-50006497D01*
X137528153Y-50040897D01*
X137513200Y-50078310D01*
X137492970Y-50111503D01*
X137467463Y-50140476D01*
X137442580Y-50161064D01*
X137408953Y-50181164D01*
X137371214Y-50196239D01*
X137336624Y-50204963D01*
X137299179Y-50210197D01*
X137258879Y-50211942D01*
X137229747Y-50210927D01*
X137195207Y-50206933D01*
X137158862Y-50199119D01*
X137135140Y-50192312D01*
X137100038Y-50180619D01*
X137065512Y-50167147D01*
X137065512Y-50069695D01*
X137070300Y-50069695D01*
X137086100Y-50081783D01*
X137117853Y-50099484D01*
X137149459Y-50113292D01*
X137156401Y-50115963D01*
X137191012Y-50126732D01*
X137225457Y-50133193D01*
X137259734Y-50135347D01*
X137267430Y-50135243D01*
X137301717Y-50132018D01*
X137335474Y-50123550D01*
X137367531Y-50108804D01*
X137394972Y-50088159D01*
X137396585Y-50086640D01*
X137419447Y-50058782D01*
X137435833Y-50026610D01*
X137441629Y-50009532D01*
X137448616Y-49974518D01*
X137450708Y-49938390D01*
X137054912Y-49938390D01*
X137054912Y-49890689D01*
X137055826Y-49872737D01*
X137142962Y-49872737D01*
X137450708Y-49872737D01*
X137449836Y-49865248D01*
X137441131Y-49830109D01*
X137425179Y-49798811D01*
X137401981Y-49771352D01*
X137387795Y-49759580D01*
X137355091Y-49742022D01*
X137320717Y-49733044D01*
X137286235Y-49730490D01*
X137277360Y-49730636D01*
X137240996Y-49734894D01*
X137207443Y-49746542D01*
X137178866Y-49767762D01*
X137174578Y-49772519D01*
X137155867Y-49802985D01*
X137146009Y-49836992D01*
X137142962Y-49872737D01*
X137055826Y-49872737D01*
X137056986Y-49849945D01*
X137063207Y-49812855D01*
X137073575Y-49779420D01*
X137090914Y-49745031D01*
X137113897Y-49715616D01*
X137137707Y-49694640D01*
X137169922Y-49675654D01*
X137206915Y-49662575D01*
X137242426Y-49656065D01*
X137281448Y-49653896D01*
X137303040Y-49654569D01*
G37*
G36*
X136524050Y-50167147D02*
G01*
X136557277Y-50181725D01*
X136591862Y-50194534D01*
X136609877Y-50200145D01*
X136643757Y-50207783D01*
X136679273Y-50211527D01*
X136696217Y-50211942D01*
X136731613Y-50210289D01*
X136768389Y-50204652D01*
X136802903Y-50195016D01*
X136834648Y-50181298D01*
X136865547Y-50161587D01*
X136886165Y-50143554D01*
X136910240Y-50115231D01*
X136928422Y-50084792D01*
X136940533Y-50056701D01*
X136950631Y-50022086D01*
X136956522Y-49988021D01*
X136959383Y-49951196D01*
X136959682Y-49933944D01*
X136957916Y-49894396D01*
X136952619Y-49857602D01*
X136943791Y-49823564D01*
X136928536Y-49786354D01*
X136908196Y-49753111D01*
X136887362Y-49728438D01*
X136858555Y-49703105D01*
X136826502Y-49683014D01*
X136791203Y-49668164D01*
X136752659Y-49658554D01*
X136718059Y-49654551D01*
X136696217Y-49653896D01*
X136661836Y-49655699D01*
X136627936Y-49661108D01*
X136605603Y-49666718D01*
X136570699Y-49677929D01*
X136538222Y-49691002D01*
X136524050Y-49697664D01*
X136524050Y-49796143D01*
X136528838Y-49796143D01*
X136557586Y-49776135D01*
X136589639Y-49758271D01*
X136614152Y-49747587D01*
X136646818Y-49737169D01*
X136681555Y-49731308D01*
X136699979Y-49730490D01*
X136736417Y-49733728D01*
X136772556Y-49745111D01*
X136803556Y-49764689D01*
X136821367Y-49782294D01*
X136840815Y-49811134D01*
X136854706Y-49846023D01*
X136862303Y-49881512D01*
X136865429Y-49915616D01*
X136865819Y-49933944D01*
X136864293Y-49968780D01*
X136858652Y-50005426D01*
X136847117Y-50042038D01*
X136830154Y-50073029D01*
X136822393Y-50083201D01*
X136795084Y-50108408D01*
X136762202Y-50125366D01*
X136728297Y-50133514D01*
X136699979Y-50135347D01*
X136665384Y-50132609D01*
X136644242Y-50128337D01*
X136611037Y-50117758D01*
X136593293Y-50109872D01*
X136562923Y-50092969D01*
X136556364Y-50088843D01*
X136528838Y-50069695D01*
X136524050Y-50069695D01*
X136524050Y-50167147D01*
G37*
G36*
X136132016Y-50196212D02*
G01*
X136165663Y-50203826D01*
X136187581Y-50207496D01*
X136222590Y-50211316D01*
X136241095Y-50211942D01*
X136279756Y-50209185D01*
X136313501Y-50200914D01*
X136345589Y-50185019D01*
X136366245Y-50167831D01*
X136386907Y-50138800D01*
X136399596Y-50105909D01*
X136406316Y-50071661D01*
X136408946Y-50032307D01*
X136408988Y-50026268D01*
X136408988Y-49741432D01*
X136470195Y-49741432D01*
X136470195Y-49664838D01*
X136408988Y-49664838D01*
X136408988Y-49511648D01*
X136318715Y-49511648D01*
X136318715Y-49664838D01*
X136132016Y-49664838D01*
X136132016Y-49741432D01*
X136318715Y-49741432D01*
X136318715Y-49987116D01*
X136318302Y-50022932D01*
X136316835Y-50053623D01*
X136308468Y-50087636D01*
X136303328Y-50098247D01*
X136279842Y-50123424D01*
X136274263Y-50126457D01*
X136239508Y-50134479D01*
X136217672Y-50135347D01*
X136183435Y-50130731D01*
X136171510Y-50127140D01*
X136138910Y-50114513D01*
X136136803Y-50113463D01*
X136132016Y-50113463D01*
X136132016Y-50196212D01*
G37*
G36*
X135690059Y-49763316D02*
G01*
X135694846Y-49763316D01*
X135729366Y-49755631D01*
X135734169Y-49754939D01*
X135769522Y-49752464D01*
X135778963Y-49752374D01*
X135815059Y-49755941D01*
X135850041Y-49766642D01*
X135859832Y-49771010D01*
X135891025Y-49787818D01*
X135921258Y-49808239D01*
X135934888Y-49818882D01*
X135934888Y-50201000D01*
X136025331Y-50201000D01*
X136025331Y-49664838D01*
X135934888Y-49664838D01*
X135934888Y-49743997D01*
X135905608Y-49721667D01*
X135875455Y-49701551D01*
X135845179Y-49685132D01*
X135840000Y-49682789D01*
X135806239Y-49671166D01*
X135771915Y-49665469D01*
X135755882Y-49664838D01*
X135721859Y-49666034D01*
X135690059Y-49670651D01*
X135690059Y-49763316D01*
G37*
G36*
X135516011Y-50201000D02*
G01*
X135606454Y-50201000D01*
X135606454Y-49456938D01*
X135516011Y-49456938D01*
X135516011Y-50201000D01*
G37*
G36*
X128585648Y-53934925D02*
G01*
X128586845Y-53950483D01*
X128590265Y-53961938D01*
X128596078Y-53968777D01*
X128603942Y-53971000D01*
X128947763Y-53971000D01*
X128959560Y-53969290D01*
X128968279Y-53963819D01*
X128973579Y-53952535D01*
X128975118Y-53934583D01*
X128974434Y-53917657D01*
X128971357Y-53904663D01*
X128965373Y-53893550D01*
X128955969Y-53881582D01*
X128835265Y-53755064D01*
X128810721Y-53727986D01*
X128787503Y-53700322D01*
X128768244Y-53674879D01*
X128748329Y-53644974D01*
X128731018Y-53613761D01*
X128729263Y-53610082D01*
X128716336Y-53577293D01*
X128711311Y-53557081D01*
X128707144Y-53522909D01*
X128706866Y-53512287D01*
X128712102Y-53477786D01*
X128713705Y-53473135D01*
X128730845Y-53443289D01*
X128733196Y-53440651D01*
X128761603Y-53420014D01*
X128765167Y-53418424D01*
X128798635Y-53410611D01*
X128809277Y-53410218D01*
X128843632Y-53413758D01*
X128861936Y-53419279D01*
X128893640Y-53433737D01*
X128902798Y-53438941D01*
X128931462Y-53458035D01*
X128932205Y-53458602D01*
X128949644Y-53467664D01*
X128955799Y-53465612D01*
X128960073Y-53459115D01*
X128962808Y-53446976D01*
X128963663Y-53428854D01*
X128963150Y-53415689D01*
X128961441Y-53406115D01*
X128958363Y-53398592D01*
X128950669Y-53389702D01*
X128930666Y-53375340D01*
X128899048Y-53359028D01*
X128895104Y-53357388D01*
X128862175Y-53346110D01*
X128848087Y-53342514D01*
X128813099Y-53337086D01*
X128793890Y-53336359D01*
X128759079Y-53338475D01*
X128723541Y-53346176D01*
X128714902Y-53349182D01*
X128683828Y-53364355D01*
X128658653Y-53384230D01*
X128637026Y-53411561D01*
X128625143Y-53436034D01*
X128616157Y-53470361D01*
X128614030Y-53498780D01*
X128615898Y-53534453D01*
X128619330Y-53558791D01*
X128628290Y-53591798D01*
X128641727Y-53623247D01*
X128659599Y-53655004D01*
X128679554Y-53684672D01*
X128691137Y-53700354D01*
X128713296Y-53728107D01*
X128736780Y-53755225D01*
X128760470Y-53781034D01*
X128776622Y-53797978D01*
X128875101Y-53899876D01*
X128604455Y-53899876D01*
X128596933Y-53902099D01*
X128590778Y-53908766D01*
X128586845Y-53919709D01*
X128585648Y-53934925D01*
G37*
G36*
X128310838Y-53338225D02*
G01*
X128347188Y-53345575D01*
X128381681Y-53359953D01*
X128401781Y-53372882D01*
X128428124Y-53396845D01*
X128449898Y-53426289D01*
X128451498Y-53428988D01*
X128467265Y-53460854D01*
X128478689Y-53493295D01*
X128487341Y-53529042D01*
X128491234Y-53551903D01*
X128495563Y-53587771D01*
X128498080Y-53625533D01*
X128498796Y-53660689D01*
X128498435Y-53689113D01*
X128496832Y-53725087D01*
X128493496Y-53762925D01*
X128488538Y-53797978D01*
X128481645Y-53830150D01*
X128470172Y-53865431D01*
X128453831Y-53898850D01*
X128444051Y-53913482D01*
X128419110Y-53940442D01*
X128389033Y-53960912D01*
X128359229Y-53972885D01*
X128325061Y-53979888D01*
X128290212Y-53981942D01*
X128256871Y-53980089D01*
X128220382Y-53972792D01*
X128185921Y-53958519D01*
X128165735Y-53945514D01*
X128139265Y-53921480D01*
X128117362Y-53892011D01*
X128115731Y-53889313D01*
X128099730Y-53857494D01*
X128088270Y-53825167D01*
X128079748Y-53789600D01*
X128075913Y-53766780D01*
X128071649Y-53730881D01*
X128069170Y-53692981D01*
X128068583Y-53663595D01*
X128153094Y-53663595D01*
X128153583Y-53695730D01*
X128155317Y-53730787D01*
X128157715Y-53756169D01*
X128163353Y-53790626D01*
X128167280Y-53807363D01*
X128178740Y-53840891D01*
X128183174Y-53850529D01*
X128203018Y-53879872D01*
X128208678Y-53885699D01*
X128238066Y-53904834D01*
X128251434Y-53909432D01*
X128285425Y-53913554D01*
X128311793Y-53911240D01*
X128344239Y-53899534D01*
X128363846Y-53884027D01*
X128384246Y-53854569D01*
X128389786Y-53842263D01*
X128400421Y-53808594D01*
X128406985Y-53774213D01*
X128408668Y-53761575D01*
X128411894Y-53727103D01*
X128413598Y-53692568D01*
X128414166Y-53654705D01*
X128413845Y-53628974D01*
X128412162Y-53591980D01*
X128409036Y-53556910D01*
X128407565Y-53545722D01*
X128400751Y-53511871D01*
X128389033Y-53477580D01*
X128372882Y-53448914D01*
X128348855Y-53424237D01*
X128317446Y-53409029D01*
X128282519Y-53404747D01*
X128275419Y-53404897D01*
X128240973Y-53410902D01*
X128237516Y-53412088D01*
X128207976Y-53430221D01*
X128202734Y-53435481D01*
X128183356Y-53464244D01*
X128176651Y-53479299D01*
X128166430Y-53513313D01*
X128160703Y-53544087D01*
X128156514Y-53579307D01*
X128155529Y-53591192D01*
X128153659Y-53627003D01*
X128153094Y-53663595D01*
X128068583Y-53663595D01*
X128068464Y-53657612D01*
X128068831Y-53629187D01*
X128070460Y-53593214D01*
X128073852Y-53555375D01*
X128078893Y-53520323D01*
X128085800Y-53488164D01*
X128097326Y-53452936D01*
X128113771Y-53419621D01*
X128123493Y-53404937D01*
X128148349Y-53377947D01*
X128178398Y-53357559D01*
X128208263Y-53345489D01*
X128242613Y-53338429D01*
X128277732Y-53336359D01*
X128310838Y-53338225D01*
G37*
G36*
X127592655Y-53934925D02*
G01*
X127593852Y-53950483D01*
X127597271Y-53961938D01*
X127603084Y-53968777D01*
X127610949Y-53971000D01*
X127954769Y-53971000D01*
X127966566Y-53969290D01*
X127975286Y-53963819D01*
X127980586Y-53952535D01*
X127982124Y-53934583D01*
X127981441Y-53917657D01*
X127978363Y-53904663D01*
X127972379Y-53893550D01*
X127962976Y-53881582D01*
X127842271Y-53755064D01*
X127817727Y-53727986D01*
X127794509Y-53700322D01*
X127775251Y-53674879D01*
X127755335Y-53644974D01*
X127738025Y-53613761D01*
X127736270Y-53610082D01*
X127723342Y-53577293D01*
X127718318Y-53557081D01*
X127714150Y-53522909D01*
X127713872Y-53512287D01*
X127719108Y-53477786D01*
X127720711Y-53473135D01*
X127737852Y-53443289D01*
X127740202Y-53440651D01*
X127768609Y-53420014D01*
X127772173Y-53418424D01*
X127805641Y-53410611D01*
X127816284Y-53410218D01*
X127850638Y-53413758D01*
X127868942Y-53419279D01*
X127900647Y-53433737D01*
X127909804Y-53438941D01*
X127938468Y-53458035D01*
X127939211Y-53458602D01*
X127956650Y-53467664D01*
X127962805Y-53465612D01*
X127967079Y-53459115D01*
X127969815Y-53446976D01*
X127970669Y-53428854D01*
X127970157Y-53415689D01*
X127968447Y-53406115D01*
X127965369Y-53398592D01*
X127957676Y-53389702D01*
X127937672Y-53375340D01*
X127906054Y-53359028D01*
X127902110Y-53357388D01*
X127869181Y-53346110D01*
X127855094Y-53342514D01*
X127820105Y-53337086D01*
X127800896Y-53336359D01*
X127766085Y-53338475D01*
X127730547Y-53346176D01*
X127721908Y-53349182D01*
X127690834Y-53364355D01*
X127665659Y-53384230D01*
X127644033Y-53411561D01*
X127632149Y-53436034D01*
X127623163Y-53470361D01*
X127621036Y-53498780D01*
X127622904Y-53534453D01*
X127626336Y-53558791D01*
X127635297Y-53591798D01*
X127648733Y-53623247D01*
X127666605Y-53655004D01*
X127686561Y-53684672D01*
X127698143Y-53700354D01*
X127720303Y-53728107D01*
X127743786Y-53755225D01*
X127767476Y-53781034D01*
X127783628Y-53797978D01*
X127882107Y-53899876D01*
X127611461Y-53899876D01*
X127603939Y-53902099D01*
X127597784Y-53908766D01*
X127593852Y-53919709D01*
X127592655Y-53934925D01*
G37*
G36*
X127252869Y-53337054D02*
G01*
X127288584Y-53341482D01*
X127323206Y-53350891D01*
X127330578Y-53353708D01*
X127362395Y-53369275D01*
X127391765Y-53390385D01*
X127395297Y-53393540D01*
X127419399Y-53419416D01*
X127439295Y-53449199D01*
X127442784Y-53455555D01*
X127458156Y-53488551D01*
X127469385Y-53521177D01*
X127472019Y-53530797D01*
X127479640Y-53565182D01*
X127484773Y-53600678D01*
X127485774Y-53610966D01*
X127488229Y-53646762D01*
X127489047Y-53682231D01*
X127488955Y-53696305D01*
X127487857Y-53731609D01*
X127485286Y-53767545D01*
X127485035Y-53770029D01*
X127480114Y-53805800D01*
X127472463Y-53840891D01*
X127463571Y-53868721D01*
X127448869Y-53900560D01*
X127436808Y-53919025D01*
X127412110Y-53944670D01*
X127392921Y-53957873D01*
X127360307Y-53972196D01*
X127325959Y-53979800D01*
X127291406Y-53981942D01*
X127268315Y-53981099D01*
X127231966Y-53975733D01*
X127197201Y-53964332D01*
X127187421Y-53959707D01*
X127156683Y-53940704D01*
X127131378Y-53917315D01*
X127126624Y-53911721D01*
X127106415Y-53881365D01*
X127092909Y-53849440D01*
X127089944Y-53839780D01*
X127082679Y-53805298D01*
X127080736Y-53776778D01*
X127164033Y-53776778D01*
X127164718Y-53792689D01*
X127171043Y-53826872D01*
X127175539Y-53840232D01*
X127192927Y-53870811D01*
X127201902Y-53881152D01*
X127230369Y-53901928D01*
X127248449Y-53909012D01*
X127283712Y-53913554D01*
X127303628Y-53912281D01*
X127336713Y-53902782D01*
X127351360Y-53893563D01*
X127374497Y-53866537D01*
X127375431Y-53864929D01*
X127389205Y-53832685D01*
X127397578Y-53799175D01*
X127402056Y-53767855D01*
X127404675Y-53731728D01*
X127405443Y-53694712D01*
X127377745Y-53678641D01*
X127345945Y-53665647D01*
X127344907Y-53665297D01*
X127311580Y-53656928D01*
X127310469Y-53656728D01*
X127276018Y-53653679D01*
X127257145Y-53654531D01*
X127222676Y-53662399D01*
X127216103Y-53665299D01*
X127187969Y-53687018D01*
X127182644Y-53694318D01*
X127169504Y-53726000D01*
X127166389Y-53742336D01*
X127164033Y-53776778D01*
X127080736Y-53776778D01*
X127080258Y-53769768D01*
X127080267Y-53767348D01*
X127082566Y-53732368D01*
X127089490Y-53697789D01*
X127100728Y-53668610D01*
X127120094Y-53640173D01*
X127144799Y-53618374D01*
X127176172Y-53601875D01*
X127189682Y-53597169D01*
X127225553Y-53589974D01*
X127261144Y-53588027D01*
X127271327Y-53588199D01*
X127305425Y-53591617D01*
X127310562Y-53592549D01*
X127344577Y-53601020D01*
X127345729Y-53601385D01*
X127378771Y-53614014D01*
X127406810Y-53628376D01*
X127405997Y-53611878D01*
X127402172Y-53576877D01*
X127395526Y-53542891D01*
X127393575Y-53535252D01*
X127382047Y-53501910D01*
X127365265Y-53470399D01*
X127363971Y-53468456D01*
X127341842Y-53442318D01*
X127312606Y-53420647D01*
X127304335Y-53416279D01*
X127269894Y-53405087D01*
X127235669Y-53402011D01*
X127226653Y-53402132D01*
X127192585Y-53405431D01*
X127161127Y-53412953D01*
X127139071Y-53420305D01*
X127124539Y-53423725D01*
X127117700Y-53421844D01*
X127113255Y-53416031D01*
X127111374Y-53405944D01*
X127111032Y-53391069D01*
X127111545Y-53379785D01*
X127113084Y-53371579D01*
X127115648Y-53364911D01*
X127120778Y-53359269D01*
X127134626Y-53352259D01*
X127160614Y-53344224D01*
X127194295Y-53338581D01*
X127195438Y-53338445D01*
X127230369Y-53336359D01*
X127252869Y-53337054D01*
G37*
G36*
X133213482Y-54757203D02*
G01*
X133217212Y-54793210D01*
X133227357Y-54826293D01*
X133232972Y-54838927D01*
X133251376Y-54869679D01*
X133274915Y-54896367D01*
X133287512Y-54907315D01*
X133318166Y-54928264D01*
X133349434Y-54944173D01*
X133377271Y-54954845D01*
X133411275Y-54963861D01*
X133445390Y-54969120D01*
X133482832Y-54971674D01*
X133500540Y-54971942D01*
X133538293Y-54971055D01*
X133574100Y-54968394D01*
X133612059Y-54963280D01*
X133639881Y-54957751D01*
X133674774Y-54948577D01*
X133710019Y-54937213D01*
X133745616Y-54923657D01*
X133765544Y-54915180D01*
X133765544Y-54796868D01*
X133758876Y-54796868D01*
X133730645Y-54816690D01*
X133700319Y-54834097D01*
X133667899Y-54849089D01*
X133633384Y-54861666D01*
X133598292Y-54871614D01*
X133564312Y-54878720D01*
X133527413Y-54883317D01*
X133499685Y-54884405D01*
X133462821Y-54882924D01*
X133425298Y-54877605D01*
X133388961Y-54866998D01*
X133361884Y-54853459D01*
X133333850Y-54829622D01*
X133316539Y-54798042D01*
X133312644Y-54770539D01*
X133316510Y-54736429D01*
X133331881Y-54705681D01*
X133336067Y-54701296D01*
X133365389Y-54681378D01*
X133398150Y-54668846D01*
X133406849Y-54666418D01*
X133441984Y-54658316D01*
X133477149Y-54652043D01*
X133484982Y-54650860D01*
X133520001Y-54645295D01*
X133553829Y-54639156D01*
X133574228Y-54635131D01*
X133608209Y-54626638D01*
X133643477Y-54614222D01*
X133678013Y-54596727D01*
X133706394Y-54575706D01*
X133715450Y-54566914D01*
X133737599Y-54537481D01*
X133752499Y-54503423D01*
X133759659Y-54469266D01*
X133761270Y-54441251D01*
X133757637Y-54403893D01*
X133746740Y-54369612D01*
X133728578Y-54338406D01*
X133703150Y-54310277D01*
X133685359Y-54295584D01*
X133655398Y-54276294D01*
X133622575Y-54260995D01*
X133586892Y-54249687D01*
X133548348Y-54242370D01*
X133514042Y-54239321D01*
X133492505Y-54238822D01*
X133455511Y-54239731D01*
X133420099Y-54242455D01*
X133382151Y-54247692D01*
X133354019Y-54253355D01*
X133319682Y-54262070D01*
X133284225Y-54273023D01*
X133251608Y-54285311D01*
X133242376Y-54289258D01*
X133242376Y-54402953D01*
X133249043Y-54402953D01*
X133280187Y-54381601D01*
X133313793Y-54364504D01*
X133348350Y-54351001D01*
X133356584Y-54348243D01*
X133390040Y-54338669D01*
X133423903Y-54331830D01*
X133458172Y-54327727D01*
X133492847Y-54326359D01*
X133529188Y-54328207D01*
X133565603Y-54334707D01*
X133600511Y-54347416D01*
X133615774Y-54355937D01*
X133642153Y-54378292D01*
X133659211Y-54409920D01*
X133662107Y-54432189D01*
X133657689Y-54467186D01*
X133641821Y-54498367D01*
X133639026Y-54501603D01*
X133609686Y-54522573D01*
X133575125Y-54535616D01*
X133557815Y-54540071D01*
X133523254Y-54546961D01*
X133487382Y-54553393D01*
X133470279Y-54556314D01*
X133436489Y-54562241D01*
X133400393Y-54569486D01*
X133374023Y-54575633D01*
X133340981Y-54585848D01*
X133307848Y-54600006D01*
X133276473Y-54619102D01*
X133253831Y-54638892D01*
X133232553Y-54668591D01*
X133220141Y-54700974D01*
X133214112Y-54738712D01*
X133213482Y-54757203D01*
G37*
G36*
X133064225Y-54961000D02*
G01*
X132883510Y-54961000D01*
X132871328Y-54960947D01*
X132836578Y-54960166D01*
X132799440Y-54958069D01*
X132761485Y-54954110D01*
X132724508Y-54947664D01*
X132717008Y-54945931D01*
X132680830Y-54935306D01*
X132646856Y-54921408D01*
X132615087Y-54904237D01*
X132597872Y-54892788D01*
X132569855Y-54870103D01*
X132544522Y-54844047D01*
X132521871Y-54814620D01*
X132501905Y-54781823D01*
X132487437Y-54751629D01*
X132474341Y-54714793D01*
X132465320Y-54676222D01*
X132460830Y-54641781D01*
X132459333Y-54606066D01*
X132459385Y-54604698D01*
X132559009Y-54604698D01*
X132559946Y-54634202D01*
X132564114Y-54670587D01*
X132572787Y-54707483D01*
X132585680Y-54740106D01*
X132590915Y-54750053D01*
X132611752Y-54780560D01*
X132637798Y-54806994D01*
X132665694Y-54827301D01*
X132693333Y-54842244D01*
X132725626Y-54854941D01*
X132759898Y-54863718D01*
X132772953Y-54866002D01*
X132807999Y-54870379D01*
X132842481Y-54872692D01*
X132879748Y-54873463D01*
X132969166Y-54873463D01*
X132969166Y-54337301D01*
X132879748Y-54337301D01*
X132871530Y-54337336D01*
X132836364Y-54338372D01*
X132800781Y-54341203D01*
X132765882Y-54346362D01*
X132742363Y-54351791D01*
X132708327Y-54363299D01*
X132675781Y-54378847D01*
X132658321Y-54389476D01*
X132630448Y-54411553D01*
X132607146Y-54437417D01*
X132588415Y-54467067D01*
X132574200Y-54500557D01*
X132565470Y-54533755D01*
X132560416Y-54570179D01*
X132559009Y-54604698D01*
X132459385Y-54604698D01*
X132460770Y-54568205D01*
X132465079Y-54532327D01*
X132472262Y-54498433D01*
X132484273Y-54461397D01*
X132500195Y-54427060D01*
X132510915Y-54408641D01*
X132532106Y-54378683D01*
X132556389Y-54351620D01*
X132583764Y-54327454D01*
X132614232Y-54306184D01*
X132619649Y-54302937D01*
X132652120Y-54286654D01*
X132685566Y-54274165D01*
X132718866Y-54264810D01*
X132739205Y-54260475D01*
X132776124Y-54255068D01*
X132812846Y-54251880D01*
X132847603Y-54250293D01*
X132885390Y-54249764D01*
X133064225Y-54249764D01*
X133064225Y-54961000D01*
G37*
G36*
X132392997Y-54961000D02*
G01*
X132296399Y-54961000D01*
X132226130Y-54764042D01*
X131916503Y-54764042D01*
X131846235Y-54961000D01*
X131744849Y-54961000D01*
X131849073Y-54676505D01*
X131945739Y-54676505D01*
X132197236Y-54676505D01*
X132071231Y-54332343D01*
X131945739Y-54676505D01*
X131849073Y-54676505D01*
X132005408Y-54249764D01*
X132132267Y-54249764D01*
X132392997Y-54961000D01*
G37*
G36*
X133263482Y-53547203D02*
G01*
X133267212Y-53583210D01*
X133277357Y-53616293D01*
X133282972Y-53628927D01*
X133301376Y-53659679D01*
X133324915Y-53686367D01*
X133337512Y-53697315D01*
X133368166Y-53718264D01*
X133399434Y-53734173D01*
X133427271Y-53744845D01*
X133461275Y-53753861D01*
X133495390Y-53759120D01*
X133532832Y-53761674D01*
X133550540Y-53761942D01*
X133588293Y-53761055D01*
X133624100Y-53758394D01*
X133662059Y-53753280D01*
X133689881Y-53747751D01*
X133724774Y-53738577D01*
X133760019Y-53727213D01*
X133795616Y-53713657D01*
X133815544Y-53705180D01*
X133815544Y-53586868D01*
X133808876Y-53586868D01*
X133780645Y-53606690D01*
X133750319Y-53624097D01*
X133717899Y-53639089D01*
X133683384Y-53651666D01*
X133648292Y-53661614D01*
X133614312Y-53668720D01*
X133577413Y-53673317D01*
X133549685Y-53674405D01*
X133512821Y-53672924D01*
X133475298Y-53667605D01*
X133438961Y-53656998D01*
X133411884Y-53643459D01*
X133383850Y-53619622D01*
X133366539Y-53588042D01*
X133362644Y-53560539D01*
X133366510Y-53526429D01*
X133381881Y-53495681D01*
X133386067Y-53491296D01*
X133415389Y-53471378D01*
X133448150Y-53458846D01*
X133456849Y-53456418D01*
X133491984Y-53448316D01*
X133527149Y-53442043D01*
X133534982Y-53440860D01*
X133570001Y-53435295D01*
X133603829Y-53429156D01*
X133624228Y-53425131D01*
X133658209Y-53416638D01*
X133693477Y-53404222D01*
X133728013Y-53386727D01*
X133756394Y-53365706D01*
X133765450Y-53356914D01*
X133787599Y-53327481D01*
X133802499Y-53293423D01*
X133809659Y-53259266D01*
X133811270Y-53231251D01*
X133807637Y-53193893D01*
X133796740Y-53159612D01*
X133778578Y-53128406D01*
X133753150Y-53100277D01*
X133735359Y-53085584D01*
X133705398Y-53066294D01*
X133672575Y-53050995D01*
X133636892Y-53039687D01*
X133598348Y-53032370D01*
X133564042Y-53029321D01*
X133542505Y-53028822D01*
X133505511Y-53029731D01*
X133470099Y-53032455D01*
X133432151Y-53037692D01*
X133404019Y-53043355D01*
X133369682Y-53052070D01*
X133334225Y-53063023D01*
X133301608Y-53075311D01*
X133292376Y-53079258D01*
X133292376Y-53192953D01*
X133299043Y-53192953D01*
X133330187Y-53171601D01*
X133363793Y-53154504D01*
X133398350Y-53141001D01*
X133406584Y-53138243D01*
X133440040Y-53128669D01*
X133473903Y-53121830D01*
X133508172Y-53117727D01*
X133542847Y-53116359D01*
X133579188Y-53118207D01*
X133615603Y-53124707D01*
X133650511Y-53137416D01*
X133665774Y-53145937D01*
X133692153Y-53168292D01*
X133709211Y-53199920D01*
X133712107Y-53222189D01*
X133707689Y-53257186D01*
X133691821Y-53288367D01*
X133689026Y-53291603D01*
X133659686Y-53312573D01*
X133625125Y-53325616D01*
X133607815Y-53330071D01*
X133573254Y-53336961D01*
X133537382Y-53343393D01*
X133520279Y-53346314D01*
X133486489Y-53352241D01*
X133450393Y-53359486D01*
X133424023Y-53365633D01*
X133390981Y-53375848D01*
X133357848Y-53390006D01*
X133326473Y-53409102D01*
X133303831Y-53428892D01*
X133282553Y-53458591D01*
X133270141Y-53490974D01*
X133264112Y-53528712D01*
X133263482Y-53547203D01*
G37*
G36*
X132561308Y-53697486D02*
G01*
X132593881Y-53711932D01*
X132609180Y-53719028D01*
X132641103Y-53731891D01*
X132665258Y-53740057D01*
X132699771Y-53749386D01*
X132728859Y-53755445D01*
X132764976Y-53760317D01*
X132799454Y-53761916D01*
X132804598Y-53761942D01*
X132842692Y-53760595D01*
X132879013Y-53756556D01*
X132913560Y-53749824D01*
X132946332Y-53740399D01*
X132980810Y-53726265D01*
X133012690Y-53708290D01*
X133041974Y-53686475D01*
X133057121Y-53672695D01*
X133081491Y-53645372D01*
X133102670Y-53614181D01*
X133118816Y-53583209D01*
X133129270Y-53557974D01*
X133140640Y-53521697D01*
X133147923Y-53487657D01*
X133152720Y-53451474D01*
X133155029Y-53413148D01*
X133155258Y-53396066D01*
X133154063Y-53358727D01*
X133150480Y-53323155D01*
X133144508Y-53289350D01*
X133134757Y-53252880D01*
X133130296Y-53239799D01*
X133116362Y-53206684D01*
X133099692Y-53176241D01*
X133077669Y-53145186D01*
X133058147Y-53123369D01*
X133030968Y-53099147D01*
X133000787Y-53078415D01*
X132967604Y-53061172D01*
X132947871Y-53053100D01*
X132914596Y-53042478D01*
X132879569Y-53034892D01*
X132842789Y-53030340D01*
X132804256Y-53028822D01*
X132768172Y-53030175D01*
X132732155Y-53034232D01*
X132696205Y-53040994D01*
X132689023Y-53042671D01*
X132655695Y-53052138D01*
X132620339Y-53064958D01*
X132587208Y-53079170D01*
X132561308Y-53091568D01*
X132561308Y-53203896D01*
X132568489Y-53203896D01*
X132598013Y-53182546D01*
X132627431Y-53164316D01*
X132660398Y-53147537D01*
X132685945Y-53137217D01*
X132719292Y-53127134D01*
X132753938Y-53120351D01*
X132789881Y-53116868D01*
X132810411Y-53116359D01*
X132846517Y-53118359D01*
X132883002Y-53125103D01*
X132908377Y-53133285D01*
X132939624Y-53148624D01*
X132968227Y-53169253D01*
X132985826Y-53185944D01*
X133008659Y-53214570D01*
X133025998Y-53245374D01*
X133037630Y-53273822D01*
X133047368Y-53308657D01*
X133053048Y-53342750D01*
X133055807Y-53379439D01*
X133056095Y-53396579D01*
X133054824Y-53431724D01*
X133050353Y-53468222D01*
X133041611Y-53505001D01*
X133035750Y-53521900D01*
X133020271Y-53555585D01*
X133002045Y-53584704D01*
X132983091Y-53607214D01*
X132956243Y-53630383D01*
X132926222Y-53648599D01*
X132904445Y-53657992D01*
X132870000Y-53667994D01*
X132834112Y-53673379D01*
X132809385Y-53674405D01*
X132771415Y-53672674D01*
X132734823Y-53667481D01*
X132699611Y-53658825D01*
X132680645Y-53652521D01*
X132647402Y-53638480D01*
X132615375Y-53620977D01*
X132584566Y-53600012D01*
X132567976Y-53586868D01*
X132561308Y-53586868D01*
X132561308Y-53697486D01*
G37*
G36*
X131977445Y-53751000D02*
G01*
X132430345Y-53751000D01*
X132430345Y-53039764D01*
X132335286Y-53039764D01*
X132335286Y-53663463D01*
X131977445Y-53663463D01*
X131977445Y-53751000D01*
G37*
G36*
X129957309Y-53796272D02*
G01*
X129958976Y-53831833D01*
X129963977Y-53864318D01*
X129975331Y-53897668D01*
X129987058Y-53916806D01*
X130013018Y-53940883D01*
X130030143Y-53950145D01*
X130064205Y-53959684D01*
X130096308Y-53961942D01*
X130122979Y-53959719D01*
X130147257Y-53954077D01*
X130166406Y-53946725D01*
X130177348Y-53939886D01*
X130181622Y-53934073D01*
X130184528Y-53927064D01*
X130186238Y-53916976D01*
X130186580Y-53902273D01*
X130185896Y-53884834D01*
X130183332Y-53873721D01*
X130178715Y-53867908D01*
X130172219Y-53866198D01*
X130162302Y-53869618D01*
X130147941Y-53877140D01*
X130128450Y-53884663D01*
X130102463Y-53888083D01*
X130074595Y-53883979D01*
X130055275Y-53868934D01*
X130043820Y-53838330D01*
X130040199Y-53804218D01*
X130039888Y-53787552D01*
X130039888Y-53342175D01*
X130038007Y-53336020D01*
X130031339Y-53331233D01*
X130018688Y-53328327D01*
X129998684Y-53327301D01*
X129978852Y-53328327D01*
X129966200Y-53331233D01*
X129959532Y-53336020D01*
X129957309Y-53342175D01*
X129957309Y-53796272D01*
G37*
G36*
X129460642Y-53776781D02*
G01*
X129463294Y-53811041D01*
X129472083Y-53844401D01*
X129476713Y-53855427D01*
X129494559Y-53885353D01*
X129517966Y-53910695D01*
X129521507Y-53913728D01*
X129550491Y-53933576D01*
X129583908Y-53948239D01*
X129588698Y-53949803D01*
X129623685Y-53958101D01*
X129658283Y-53961645D01*
X129672131Y-53961942D01*
X129707658Y-53960194D01*
X129730090Y-53956983D01*
X129764097Y-53949351D01*
X129777791Y-53945187D01*
X129810120Y-53932200D01*
X129812840Y-53930825D01*
X129832501Y-53918002D01*
X129840708Y-53903641D01*
X129843272Y-53879192D01*
X129842418Y-53861069D01*
X129839511Y-53849443D01*
X129834724Y-53843288D01*
X129827885Y-53841579D01*
X129808907Y-53849272D01*
X129778639Y-53865462D01*
X129777449Y-53866027D01*
X129744142Y-53878946D01*
X129731116Y-53882953D01*
X129695881Y-53889520D01*
X129668370Y-53890818D01*
X129633409Y-53887424D01*
X129618960Y-53883637D01*
X129587825Y-53868498D01*
X129580491Y-53862950D01*
X129558727Y-53836186D01*
X129555872Y-53830295D01*
X129547570Y-53796606D01*
X129547152Y-53786013D01*
X129553335Y-53751736D01*
X129559120Y-53740535D01*
X129582620Y-53713805D01*
X129590921Y-53707367D01*
X129620622Y-53688832D01*
X129635886Y-53681209D01*
X129667836Y-53666115D01*
X129687519Y-53656931D01*
X129718445Y-53641206D01*
X129738981Y-53629405D01*
X129768179Y-53608528D01*
X129783775Y-53594014D01*
X129805480Y-53565844D01*
X129815746Y-53546314D01*
X129825562Y-53512077D01*
X129827885Y-53480661D01*
X129824767Y-53445674D01*
X129814568Y-53412495D01*
X129813695Y-53410563D01*
X129795529Y-53380712D01*
X129774371Y-53359101D01*
X129744784Y-53339738D01*
X129714190Y-53327301D01*
X129680290Y-53319447D01*
X129643985Y-53316402D01*
X129638963Y-53316359D01*
X129603932Y-53318671D01*
X129597418Y-53319607D01*
X129563756Y-53326505D01*
X129557923Y-53328156D01*
X129525097Y-53340124D01*
X129506120Y-53350724D01*
X129500136Y-53357392D01*
X129497571Y-53364230D01*
X129496203Y-53374318D01*
X129495690Y-53389534D01*
X129496374Y-53405263D01*
X129498597Y-53416718D01*
X129502700Y-53423557D01*
X129508684Y-53425780D01*
X129525268Y-53419625D01*
X129552965Y-53405605D01*
X129586101Y-53392889D01*
X129591605Y-53391244D01*
X129626627Y-53385261D01*
X129641870Y-53384747D01*
X129677100Y-53388786D01*
X129687177Y-53391928D01*
X129717220Y-53409278D01*
X129718806Y-53410734D01*
X129737613Y-53438773D01*
X129743768Y-53472967D01*
X129737585Y-53506861D01*
X129731800Y-53518103D01*
X129709264Y-53543909D01*
X129699829Y-53551443D01*
X129669738Y-53570293D01*
X129654351Y-53578114D01*
X129622173Y-53593421D01*
X129602547Y-53602734D01*
X129571439Y-53618195D01*
X129550572Y-53629747D01*
X129522167Y-53649136D01*
X129505094Y-53664625D01*
X129483161Y-53692648D01*
X129472951Y-53712154D01*
X129462998Y-53746067D01*
X129460642Y-53776781D01*
G37*
G36*
X135986196Y-60231000D02*
G01*
X136081427Y-60231000D01*
X136081427Y-59617901D01*
X136280436Y-60034042D01*
X136337198Y-60034042D01*
X136534839Y-59617901D01*
X136534839Y-60231000D01*
X136623743Y-60231000D01*
X136623743Y-59519764D01*
X136493977Y-59519764D01*
X136303175Y-59914876D01*
X136118527Y-59519764D01*
X135986196Y-59519764D01*
X135986196Y-60231000D01*
G37*
G36*
X135332407Y-60231000D02*
G01*
X135817107Y-60231000D01*
X135817107Y-60125169D01*
X135788710Y-60101621D01*
X135760258Y-60078100D01*
X135731753Y-60054605D01*
X135715893Y-60041565D01*
X135687885Y-60018044D01*
X135660985Y-59994603D01*
X135635195Y-59971244D01*
X135621346Y-59958302D01*
X135593918Y-59932189D01*
X135569337Y-59907813D01*
X135543598Y-59880853D01*
X135518749Y-59852560D01*
X135497183Y-59824393D01*
X135495000Y-59821184D01*
X135476968Y-59788540D01*
X135465614Y-59754292D01*
X135460939Y-59718442D01*
X135460806Y-59711080D01*
X135465149Y-59676822D01*
X135479795Y-59645763D01*
X135497564Y-59626792D01*
X135529244Y-59608247D01*
X135565508Y-59598766D01*
X135600317Y-59596359D01*
X135637064Y-59598588D01*
X135673088Y-59604603D01*
X135695034Y-59609866D01*
X135729779Y-59620828D01*
X135763958Y-59635144D01*
X135794539Y-59651069D01*
X135799326Y-59651069D01*
X135799326Y-59552420D01*
X135765054Y-59538614D01*
X135732019Y-59528548D01*
X135708199Y-59522500D01*
X135672950Y-59515287D01*
X135638369Y-59510746D01*
X135601100Y-59508836D01*
X135597752Y-59508822D01*
X135558140Y-59510649D01*
X135521882Y-59516131D01*
X135483819Y-59527145D01*
X135450322Y-59543134D01*
X135425244Y-59560797D01*
X135400861Y-59585303D01*
X135380329Y-59617638D01*
X135367619Y-59654589D01*
X135362913Y-59690708D01*
X135362669Y-59701676D01*
X135364960Y-59738018D01*
X135371835Y-59772031D01*
X135373098Y-59776390D01*
X135385835Y-59810029D01*
X135403531Y-59841872D01*
X135423961Y-59870851D01*
X135446066Y-59897554D01*
X135447641Y-59899318D01*
X135471726Y-59925180D01*
X135497842Y-59951304D01*
X135508848Y-59961893D01*
X135534793Y-59986406D01*
X135561165Y-60010534D01*
X135587964Y-60034277D01*
X135615191Y-60057636D01*
X135642173Y-60080375D01*
X135671428Y-60104935D01*
X135699520Y-60128412D01*
X135717602Y-60143463D01*
X135332407Y-60143463D01*
X135332407Y-60231000D01*
G37*
G36*
X133139371Y-55649764D02*
G01*
X133399930Y-56361000D01*
X133526789Y-56361000D01*
X133787519Y-55649764D01*
X133685621Y-55649764D01*
X133460966Y-56275515D01*
X133236482Y-55649764D01*
X133139371Y-55649764D01*
G37*
G36*
X132481308Y-56307486D02*
G01*
X132513881Y-56321932D01*
X132529180Y-56329028D01*
X132561103Y-56341891D01*
X132585258Y-56350057D01*
X132619771Y-56359386D01*
X132648859Y-56365445D01*
X132684976Y-56370317D01*
X132719454Y-56371916D01*
X132724598Y-56371942D01*
X132762692Y-56370595D01*
X132799013Y-56366556D01*
X132833560Y-56359824D01*
X132866332Y-56350399D01*
X132900810Y-56336265D01*
X132932690Y-56318290D01*
X132961974Y-56296475D01*
X132977121Y-56282695D01*
X133001491Y-56255372D01*
X133022670Y-56224181D01*
X133038816Y-56193209D01*
X133049270Y-56167974D01*
X133060640Y-56131697D01*
X133067923Y-56097657D01*
X133072720Y-56061474D01*
X133075029Y-56023148D01*
X133075258Y-56006066D01*
X133074063Y-55968727D01*
X133070480Y-55933155D01*
X133064508Y-55899350D01*
X133054757Y-55862880D01*
X133050296Y-55849799D01*
X133036362Y-55816684D01*
X133019692Y-55786241D01*
X132997669Y-55755186D01*
X132978147Y-55733369D01*
X132950968Y-55709147D01*
X132920787Y-55688415D01*
X132887604Y-55671172D01*
X132867871Y-55663100D01*
X132834596Y-55652478D01*
X132799569Y-55644892D01*
X132762789Y-55640340D01*
X132724256Y-55638822D01*
X132688172Y-55640175D01*
X132652155Y-55644232D01*
X132616205Y-55650994D01*
X132609023Y-55652671D01*
X132575695Y-55662138D01*
X132540339Y-55674958D01*
X132507208Y-55689170D01*
X132481308Y-55701568D01*
X132481308Y-55813896D01*
X132488489Y-55813896D01*
X132518013Y-55792546D01*
X132547431Y-55774316D01*
X132580398Y-55757537D01*
X132605945Y-55747217D01*
X132639292Y-55737134D01*
X132673938Y-55730351D01*
X132709881Y-55726868D01*
X132730411Y-55726359D01*
X132766517Y-55728359D01*
X132803002Y-55735103D01*
X132828377Y-55743285D01*
X132859624Y-55758624D01*
X132888227Y-55779253D01*
X132905826Y-55795944D01*
X132928659Y-55824570D01*
X132945998Y-55855374D01*
X132957630Y-55883822D01*
X132967368Y-55918657D01*
X132973048Y-55952750D01*
X132975807Y-55989439D01*
X132976095Y-56006579D01*
X132974824Y-56041724D01*
X132970353Y-56078222D01*
X132961611Y-56115001D01*
X132955750Y-56131900D01*
X132940271Y-56165585D01*
X132922045Y-56194704D01*
X132903091Y-56217214D01*
X132876243Y-56240383D01*
X132846222Y-56258599D01*
X132824445Y-56267992D01*
X132790000Y-56277994D01*
X132754112Y-56283379D01*
X132729385Y-56284405D01*
X132691415Y-56282674D01*
X132654823Y-56277481D01*
X132619611Y-56268825D01*
X132600645Y-56262521D01*
X132567402Y-56248480D01*
X132535375Y-56230977D01*
X132504566Y-56210012D01*
X132487976Y-56196868D01*
X132481308Y-56196868D01*
X132481308Y-56307486D01*
G37*
G36*
X131797428Y-56307486D02*
G01*
X131830001Y-56321932D01*
X131845300Y-56329028D01*
X131877223Y-56341891D01*
X131901378Y-56350057D01*
X131935891Y-56359386D01*
X131964979Y-56365445D01*
X132001096Y-56370317D01*
X132035574Y-56371916D01*
X132040718Y-56371942D01*
X132078813Y-56370595D01*
X132115133Y-56366556D01*
X132149680Y-56359824D01*
X132182452Y-56350399D01*
X132216930Y-56336265D01*
X132248810Y-56318290D01*
X132278094Y-56296475D01*
X132293241Y-56282695D01*
X132317611Y-56255372D01*
X132338790Y-56224181D01*
X132354936Y-56193209D01*
X132365390Y-56167974D01*
X132376760Y-56131697D01*
X132384043Y-56097657D01*
X132388840Y-56061474D01*
X132391149Y-56023148D01*
X132391378Y-56006066D01*
X132390183Y-55968727D01*
X132386600Y-55933155D01*
X132380628Y-55899350D01*
X132370877Y-55862880D01*
X132366416Y-55849799D01*
X132352482Y-55816684D01*
X132335812Y-55786241D01*
X132313789Y-55755186D01*
X132294267Y-55733369D01*
X132267088Y-55709147D01*
X132236907Y-55688415D01*
X132203724Y-55671172D01*
X132183991Y-55663100D01*
X132150716Y-55652478D01*
X132115689Y-55644892D01*
X132078909Y-55640340D01*
X132040376Y-55638822D01*
X132004292Y-55640175D01*
X131968275Y-55644232D01*
X131932325Y-55650994D01*
X131925143Y-55652671D01*
X131891815Y-55662138D01*
X131856459Y-55674958D01*
X131823328Y-55689170D01*
X131797428Y-55701568D01*
X131797428Y-55813896D01*
X131804609Y-55813896D01*
X131834133Y-55792546D01*
X131863551Y-55774316D01*
X131896518Y-55757537D01*
X131922065Y-55747217D01*
X131955412Y-55737134D01*
X131990058Y-55730351D01*
X132026001Y-55726868D01*
X132046531Y-55726359D01*
X132082637Y-55728359D01*
X132119122Y-55735103D01*
X132144497Y-55743285D01*
X132175744Y-55758624D01*
X132204347Y-55779253D01*
X132221946Y-55795944D01*
X132244779Y-55824570D01*
X132262118Y-55855374D01*
X132273750Y-55883822D01*
X132283488Y-55918657D01*
X132289168Y-55952750D01*
X132291927Y-55989439D01*
X132292215Y-56006579D01*
X132290944Y-56041724D01*
X132286473Y-56078222D01*
X132277731Y-56115001D01*
X132271870Y-56131900D01*
X132256391Y-56165585D01*
X132238165Y-56194704D01*
X132219211Y-56217214D01*
X132192363Y-56240383D01*
X132162342Y-56258599D01*
X132140565Y-56267992D01*
X132106120Y-56277994D01*
X132070232Y-56283379D01*
X132045505Y-56284405D01*
X132007535Y-56282674D01*
X131970943Y-56277481D01*
X131935731Y-56268825D01*
X131916765Y-56262521D01*
X131883522Y-56248480D01*
X131851495Y-56230977D01*
X131820686Y-56210012D01*
X131804096Y-56196868D01*
X131797428Y-56196868D01*
X131797428Y-56307486D01*
G37*
G36*
X133216545Y-52295434D02*
G01*
X133250397Y-52309979D01*
X133285980Y-52323414D01*
X133319063Y-52334425D01*
X133344773Y-52342109D01*
X133379202Y-52350786D01*
X133413075Y-52356983D01*
X133450519Y-52360993D01*
X133479155Y-52361942D01*
X133515069Y-52360853D01*
X133549658Y-52357589D01*
X133587565Y-52351194D01*
X133623742Y-52341956D01*
X133632515Y-52339203D01*
X133666100Y-52326401D01*
X133697099Y-52310736D01*
X133728882Y-52289690D01*
X133751339Y-52270815D01*
X133777444Y-52243119D01*
X133797650Y-52215435D01*
X133815036Y-52184866D01*
X133827934Y-52155752D01*
X133839677Y-52119752D01*
X133847201Y-52085850D01*
X133852155Y-52049707D01*
X133854540Y-52011322D01*
X133854776Y-51994185D01*
X133853211Y-51952944D01*
X133848514Y-51913936D01*
X133840687Y-51877162D01*
X133829729Y-51842620D01*
X133815640Y-51810312D01*
X133798420Y-51780238D01*
X133778069Y-51752396D01*
X133754588Y-51726788D01*
X133728331Y-51703827D01*
X133699738Y-51683928D01*
X133668812Y-51667090D01*
X133635550Y-51653314D01*
X133599953Y-51642599D01*
X133562022Y-51634945D01*
X133521756Y-51630353D01*
X133479155Y-51628822D01*
X133444606Y-51629972D01*
X133409624Y-51633420D01*
X133374209Y-51639168D01*
X133354347Y-51643355D01*
X133317705Y-51653042D01*
X133283839Y-51664356D01*
X133248756Y-51678212D01*
X133217058Y-51692423D01*
X133217058Y-51803896D01*
X133225778Y-51803896D01*
X133255687Y-51784501D01*
X133269033Y-51776369D01*
X133300637Y-51758920D01*
X133324769Y-51747817D01*
X133357818Y-51736169D01*
X133392188Y-51727128D01*
X133399996Y-51725420D01*
X133436031Y-51719553D01*
X133472600Y-51716792D01*
X133495397Y-51716359D01*
X133531779Y-51718175D01*
X133565699Y-51723622D01*
X133603151Y-51734952D01*
X133637057Y-51751511D01*
X133667417Y-51773300D01*
X133685687Y-51790731D01*
X133709451Y-51820466D01*
X133728298Y-51853891D01*
X133742229Y-51891007D01*
X133750082Y-51924756D01*
X133754521Y-51961068D01*
X133755614Y-51991963D01*
X133753831Y-52032344D01*
X133748484Y-52069821D01*
X133739573Y-52104392D01*
X133724173Y-52142043D01*
X133703641Y-52175510D01*
X133682609Y-52200204D01*
X133653311Y-52225421D01*
X133620299Y-52245420D01*
X133583572Y-52260202D01*
X133550128Y-52268536D01*
X133514105Y-52273246D01*
X133483429Y-52274405D01*
X133448936Y-52273203D01*
X133414443Y-52269596D01*
X133391448Y-52265856D01*
X133355970Y-52257954D01*
X133321993Y-52247613D01*
X133310921Y-52243459D01*
X133310921Y-52077448D01*
X133502749Y-52077448D01*
X133502749Y-51989911D01*
X133216545Y-51989911D01*
X133216545Y-52295434D01*
G37*
G36*
X132507704Y-52351000D02*
G01*
X132625673Y-52351000D01*
X132965048Y-51714820D01*
X132965048Y-52351000D01*
X133053953Y-52351000D01*
X133053953Y-51639764D01*
X132906406Y-51639764D01*
X132596779Y-52220549D01*
X132596779Y-51639764D01*
X132507704Y-51639764D01*
X132507704Y-52351000D01*
G37*
G36*
X132320833Y-52351000D02*
G01*
X132140118Y-52351000D01*
X132127937Y-52350947D01*
X132093187Y-52350166D01*
X132056049Y-52348069D01*
X132018094Y-52344110D01*
X131981116Y-52337664D01*
X131973616Y-52335931D01*
X131937439Y-52325306D01*
X131903465Y-52311408D01*
X131871695Y-52294237D01*
X131854481Y-52282788D01*
X131826464Y-52260103D01*
X131801130Y-52234047D01*
X131778480Y-52204620D01*
X131758513Y-52171823D01*
X131744045Y-52141629D01*
X131730950Y-52104793D01*
X131721928Y-52066222D01*
X131717438Y-52031781D01*
X131715942Y-51996066D01*
X131715994Y-51994698D01*
X131815617Y-51994698D01*
X131816555Y-52024202D01*
X131820722Y-52060587D01*
X131829396Y-52097483D01*
X131842288Y-52130106D01*
X131847524Y-52140053D01*
X131868361Y-52170560D01*
X131894407Y-52196994D01*
X131922302Y-52217301D01*
X131949941Y-52232244D01*
X131982234Y-52244941D01*
X132016507Y-52253718D01*
X132029562Y-52256002D01*
X132064607Y-52260379D01*
X132099089Y-52262692D01*
X132136357Y-52263463D01*
X132225774Y-52263463D01*
X132225774Y-51727301D01*
X132136357Y-51727301D01*
X132128138Y-51727336D01*
X132092973Y-51728372D01*
X132057390Y-51731203D01*
X132022491Y-51736362D01*
X131998972Y-51741791D01*
X131964935Y-51753299D01*
X131932390Y-51768847D01*
X131914929Y-51779476D01*
X131887056Y-51801553D01*
X131863755Y-51827417D01*
X131845024Y-51857067D01*
X131830809Y-51890557D01*
X131822079Y-51923755D01*
X131817024Y-51960179D01*
X131815617Y-51994698D01*
X131715994Y-51994698D01*
X131717378Y-51958205D01*
X131721688Y-51922327D01*
X131728871Y-51888433D01*
X131740882Y-51851397D01*
X131756803Y-51817060D01*
X131767524Y-51798641D01*
X131788714Y-51768683D01*
X131812997Y-51741620D01*
X131840373Y-51717454D01*
X131870840Y-51696184D01*
X131876258Y-51692937D01*
X131908729Y-51676654D01*
X131942175Y-51664165D01*
X131975474Y-51654810D01*
X131995813Y-51650475D01*
X132032732Y-51645068D01*
X132069454Y-51641880D01*
X132104212Y-51640293D01*
X132141999Y-51639764D01*
X132320833Y-51639764D01*
X132320833Y-52351000D01*
G37*
D12*
%TO.C,J1*%
X134180000Y-50680000D02*
X139680000Y-50680000D01*
X134180000Y-57430000D02*
X134180000Y-50680000D01*
X138330000Y-58230000D02*
X138630000Y-57730000D01*
X138630000Y-57730000D02*
X138930000Y-58230000D01*
X138930000Y-58230000D02*
X138330000Y-58230000D01*
X139680000Y-50680000D02*
X139680000Y-57430000D01*
X139680000Y-57430000D02*
X134180000Y-57430000D01*
%TD*%
M02*
