%TF.GenerationSoftware,KiCad,Pcbnew,8.0.3*%
%TF.CreationDate,2026-01-07T02:22:38-05:00*%
%TF.ProjectId,lux-module,6c75782d-6d6f-4647-956c-652e6b696361,A*%
%TF.SameCoordinates,Original*%
%TF.FileFunction,Copper,L2,Bot*%
%TF.FilePolarity,Positive*%
%FSLAX46Y46*%
G04 Gerber Fmt 4.6, Leading zero omitted, Abs format (unit mm)*
G04 Created by KiCad (PCBNEW 8.0.3) date 2026-01-07 02:22:38*
%MOMM*%
%LPD*%
G01*
G04 APERTURE LIST*
%TA.AperFunction,ComponentPad*%
%ADD10R,0.850000X0.850000*%
%TD*%
%TA.AperFunction,ComponentPad*%
%ADD11C,0.850000*%
%TD*%
%TA.AperFunction,ViaPad*%
%ADD12C,0.600000*%
%TD*%
%TA.AperFunction,Conductor*%
%ADD13C,0.500000*%
%TD*%
G04 APERTURE END LIST*
D10*
%TO.P,J1,1,Pin_1*%
%TO.N,+3V3*%
X138630000Y-55930000D03*
D11*
%TO.P,J1,2,Pin_2*%
%TO.N,/SDA*%
X138630000Y-54680000D03*
%TO.P,J1,3,Pin_3*%
%TO.N,/SCL*%
X138630000Y-53430000D03*
%TO.P,J1,4,Pin_4*%
%TO.N,GND*%
X138630000Y-52180000D03*
%TD*%
D12*
%TO.N,+3V3*%
X134970000Y-55300000D03*
%TO.N,GND*%
X127210000Y-50470000D03*
X140470000Y-50060000D03*
X138680000Y-47820000D03*
X126080000Y-54200000D03*
X129720000Y-46850000D03*
X140310000Y-57670000D03*
X139480000Y-49000000D03*
X138170000Y-60270000D03*
X128270000Y-49480000D03*
X140700000Y-55810000D03*
X137110000Y-61260000D03*
X127820000Y-59750000D03*
X125870000Y-56010000D03*
X128810000Y-60810000D03*
X136760000Y-46910000D03*
X136335000Y-52085000D03*
X136320000Y-47760000D03*
X131020000Y-55760000D03*
X127020000Y-58570000D03*
X129510000Y-60290000D03*
X139350000Y-59470000D03*
X136760000Y-59150000D03*
X128880000Y-56410000D03*
X140690000Y-53760000D03*
X130500000Y-61350000D03*
X137740000Y-59160000D03*
X129420000Y-57270000D03*
X129450000Y-48680000D03*
X141250000Y-52670000D03*
X130580000Y-51230000D03*
X128540000Y-47650000D03*
X132290028Y-51200000D03*
X137200000Y-58300000D03*
X128440000Y-57260000D03*
X130040000Y-50370000D03*
X128710000Y-59110000D03*
X141400000Y-54960000D03*
X127480000Y-48640000D03*
X137300000Y-47770000D03*
X125010000Y-54780000D03*
X129600000Y-51220000D03*
X125240000Y-52980000D03*
%TD*%
D13*
%TO.N,+3V3*%
X138630000Y-55930000D02*
X135600000Y-55930000D01*
X135600000Y-55930000D02*
X134970000Y-55300000D01*
%TD*%
%TA.AperFunction,Conductor*%
%TO.N,GND*%
G36*
X138580272Y-52430000D02*
G01*
X138679728Y-52430000D01*
X138771608Y-52391942D01*
X138717680Y-52445871D01*
X138656357Y-52479356D01*
X138586665Y-52474372D01*
X138542318Y-52445871D01*
X138488387Y-52391940D01*
X138580272Y-52430000D01*
G37*
%TD.AperFunction*%
%TA.AperFunction,Conductor*%
G36*
X133820445Y-45503580D02*
G01*
X133828866Y-45504157D01*
X134406416Y-45563531D01*
X134414754Y-45564677D01*
X134986898Y-45663325D01*
X134995187Y-45665047D01*
X135559248Y-45802505D01*
X135567362Y-45804778D01*
X136001120Y-45942447D01*
X136120735Y-45980412D01*
X136128713Y-45983247D01*
X136324867Y-46060599D01*
X136668817Y-46196235D01*
X136676564Y-46199601D01*
X137200857Y-46448944D01*
X137208349Y-46452825D01*
X137685186Y-46720937D01*
X137714415Y-46737372D01*
X137721649Y-46741771D01*
X138207114Y-47060187D01*
X138214023Y-47065065D01*
X138676615Y-47415860D01*
X138683183Y-47421204D01*
X139120749Y-47802742D01*
X139126937Y-47808521D01*
X139537456Y-48219040D01*
X139543235Y-48225228D01*
X139924773Y-48662794D01*
X139930117Y-48669362D01*
X140280912Y-49131954D01*
X140285795Y-49138871D01*
X140604206Y-49624328D01*
X140608605Y-49631562D01*
X140893145Y-50137615D01*
X140897040Y-50145133D01*
X141146372Y-50669404D01*
X141149746Y-50677170D01*
X141362730Y-51217264D01*
X141365565Y-51225242D01*
X141541193Y-51778596D01*
X141543477Y-51786749D01*
X141680929Y-52350789D01*
X141682652Y-52359079D01*
X141781296Y-52931198D01*
X141782449Y-52939586D01*
X141841819Y-53517098D01*
X141842397Y-53525545D01*
X141862218Y-54105766D01*
X141862218Y-54114234D01*
X141842397Y-54694454D01*
X141841819Y-54702901D01*
X141782449Y-55280413D01*
X141781296Y-55288801D01*
X141682652Y-55860920D01*
X141680929Y-55869210D01*
X141543477Y-56433250D01*
X141541193Y-56441403D01*
X141365565Y-56994757D01*
X141362730Y-57002735D01*
X141149746Y-57542829D01*
X141146372Y-57550595D01*
X140897040Y-58074866D01*
X140893145Y-58082384D01*
X140608605Y-58588437D01*
X140604206Y-58595671D01*
X140285795Y-59081128D01*
X140280912Y-59088045D01*
X139930117Y-59550637D01*
X139924773Y-59557205D01*
X139543235Y-59994771D01*
X139537456Y-60000959D01*
X139126937Y-60411478D01*
X139120749Y-60417257D01*
X138683183Y-60798795D01*
X138676615Y-60804139D01*
X138214023Y-61154934D01*
X138207106Y-61159817D01*
X137721649Y-61478228D01*
X137714415Y-61482627D01*
X137208362Y-61767167D01*
X137200844Y-61771062D01*
X136676573Y-62020394D01*
X136668807Y-62023768D01*
X136128713Y-62236752D01*
X136120735Y-62239587D01*
X135567381Y-62415215D01*
X135559228Y-62417499D01*
X134995188Y-62554951D01*
X134986898Y-62556674D01*
X134414779Y-62655318D01*
X134406391Y-62656471D01*
X133828879Y-62715841D01*
X133820432Y-62716419D01*
X133240212Y-62736240D01*
X133231744Y-62736240D01*
X132651523Y-62716419D01*
X132643076Y-62715841D01*
X132065564Y-62656471D01*
X132057176Y-62655318D01*
X131485057Y-62556674D01*
X131476767Y-62554951D01*
X130912727Y-62417499D01*
X130904574Y-62415215D01*
X130351220Y-62239587D01*
X130343242Y-62236752D01*
X129803148Y-62023768D01*
X129795382Y-62020394D01*
X129271111Y-61771062D01*
X129263593Y-61767167D01*
X128757540Y-61482627D01*
X128750306Y-61478228D01*
X128264849Y-61159817D01*
X128257932Y-61154934D01*
X127795340Y-60804139D01*
X127788772Y-60798795D01*
X127351206Y-60417257D01*
X127345018Y-60411478D01*
X126934499Y-60000959D01*
X126928720Y-59994771D01*
X126718528Y-59753713D01*
X131629500Y-59753713D01*
X131629500Y-59966287D01*
X131662754Y-60176243D01*
X131720495Y-60353952D01*
X131728444Y-60378414D01*
X131824951Y-60567820D01*
X131949890Y-60739786D01*
X132100213Y-60890109D01*
X132272179Y-61015048D01*
X132272181Y-61015049D01*
X132272184Y-61015051D01*
X132461588Y-61111557D01*
X132663757Y-61177246D01*
X132873713Y-61210500D01*
X132873714Y-61210500D01*
X133086286Y-61210500D01*
X133086287Y-61210500D01*
X133296243Y-61177246D01*
X133498412Y-61111557D01*
X133687816Y-61015051D01*
X133709789Y-60999086D01*
X133859786Y-60890109D01*
X133859788Y-60890106D01*
X133859792Y-60890104D01*
X134010104Y-60739792D01*
X134010106Y-60739788D01*
X134010109Y-60739786D01*
X134135048Y-60567820D01*
X134135047Y-60567820D01*
X134135051Y-60567816D01*
X134231557Y-60378412D01*
X134297246Y-60176243D01*
X134330500Y-59966287D01*
X134330500Y-59753713D01*
X134297246Y-59543757D01*
X134231557Y-59341588D01*
X134135051Y-59152184D01*
X134135049Y-59152181D01*
X134135048Y-59152179D01*
X134010109Y-58980213D01*
X133859786Y-58829890D01*
X133687820Y-58704951D01*
X133498414Y-58608444D01*
X133498413Y-58608443D01*
X133498412Y-58608443D01*
X133296243Y-58542754D01*
X133296241Y-58542753D01*
X133296240Y-58542753D01*
X133134957Y-58517208D01*
X133086287Y-58509500D01*
X132873713Y-58509500D01*
X132825042Y-58517208D01*
X132663760Y-58542753D01*
X132461585Y-58608444D01*
X132272179Y-58704951D01*
X132100213Y-58829890D01*
X131949890Y-58980213D01*
X131824951Y-59152179D01*
X131728444Y-59341585D01*
X131662753Y-59543760D01*
X131661664Y-59550637D01*
X131629500Y-59753713D01*
X126718528Y-59753713D01*
X126547182Y-59557205D01*
X126541838Y-59550637D01*
X126239681Y-59152184D01*
X126191037Y-59088037D01*
X126186160Y-59081128D01*
X125867749Y-58595671D01*
X125863350Y-58588437D01*
X125695161Y-58289313D01*
X125578803Y-58082371D01*
X125574922Y-58074879D01*
X125325579Y-57550586D01*
X125322209Y-57542829D01*
X125109225Y-57002735D01*
X125106390Y-56994757D01*
X125068425Y-56875142D01*
X124930756Y-56441384D01*
X124928483Y-56433270D01*
X124791025Y-55869209D01*
X124789303Y-55860920D01*
X124779189Y-55802262D01*
X124692590Y-55299996D01*
X134164435Y-55299996D01*
X134164435Y-55300003D01*
X134184630Y-55479249D01*
X134184631Y-55479254D01*
X134244211Y-55649523D01*
X134340184Y-55802262D01*
X134467738Y-55929816D01*
X134501936Y-55951304D01*
X134620483Y-56025792D01*
X134626753Y-56028812D01*
X134625870Y-56030643D01*
X134661940Y-56053308D01*
X135017049Y-56408416D01*
X135121584Y-56512951D01*
X135121587Y-56512953D01*
X135121588Y-56512954D01*
X135244503Y-56595083D01*
X135244506Y-56595085D01*
X135301079Y-56618518D01*
X135301080Y-56618518D01*
X135381088Y-56651659D01*
X135497241Y-56674763D01*
X135516468Y-56678587D01*
X135526081Y-56680500D01*
X135526082Y-56680500D01*
X135526083Y-56680500D01*
X135673918Y-56680500D01*
X137764046Y-56680500D01*
X137831085Y-56700185D01*
X137840157Y-56707495D01*
X137840355Y-56707232D01*
X137962664Y-56798793D01*
X137962671Y-56798797D01*
X138097517Y-56849091D01*
X138097516Y-56849091D01*
X138104444Y-56849835D01*
X138157127Y-56855500D01*
X139102872Y-56855499D01*
X139162483Y-56849091D01*
X139297331Y-56798796D01*
X139412546Y-56712546D01*
X139498796Y-56597331D01*
X139549091Y-56462483D01*
X139555500Y-56402873D01*
X139555499Y-55457128D01*
X139549091Y-55397517D01*
X139506985Y-55284626D01*
X139498797Y-55262671D01*
X139498793Y-55262664D01*
X139470734Y-55225182D01*
X139446316Y-55159718D01*
X139461167Y-55091445D01*
X139462565Y-55088955D01*
X139480144Y-55058508D01*
X139540262Y-54873482D01*
X139560598Y-54680000D01*
X139540262Y-54486518D01*
X139480144Y-54301492D01*
X139480143Y-54301491D01*
X139480143Y-54301489D01*
X139480142Y-54301488D01*
X139382871Y-54133009D01*
X139379150Y-54127888D01*
X139355668Y-54062083D01*
X139371492Y-53994028D01*
X139379150Y-53982112D01*
X139382871Y-53976990D01*
X139480142Y-53808511D01*
X139480143Y-53808510D01*
X139480144Y-53808508D01*
X139540262Y-53623482D01*
X139560598Y-53430000D01*
X139540262Y-53236518D01*
X139480144Y-53051492D01*
X139480143Y-53051491D01*
X139480143Y-53051489D01*
X139480142Y-53051488D01*
X139382871Y-52883009D01*
X139379048Y-52877747D01*
X139381438Y-52876010D01*
X139356757Y-52824608D01*
X139365369Y-52755271D01*
X139378814Y-52731718D01*
X139382465Y-52726691D01*
X139479683Y-52558304D01*
X139479686Y-52558298D01*
X139539768Y-52373382D01*
X139539769Y-52373380D01*
X139560094Y-52180000D01*
X139539769Y-51986619D01*
X139539768Y-51986617D01*
X139479686Y-51801701D01*
X139479683Y-51801695D01*
X139436555Y-51726996D01*
X138841942Y-52321608D01*
X138880000Y-52229728D01*
X138880000Y-52130272D01*
X138841940Y-52038386D01*
X138771614Y-51968060D01*
X138679728Y-51930000D01*
X138580272Y-51930000D01*
X138488386Y-51968060D01*
X138418060Y-52038386D01*
X138380000Y-52130272D01*
X138380000Y-52229728D01*
X138418059Y-52321612D01*
X137823443Y-51726996D01*
X137780315Y-51801697D01*
X137720231Y-51986617D01*
X137720230Y-51986619D01*
X137699905Y-52180000D01*
X137720230Y-52373380D01*
X137720231Y-52373382D01*
X137780313Y-52558298D01*
X137780316Y-52558304D01*
X137877534Y-52726691D01*
X137881186Y-52731718D01*
X137904665Y-52797525D01*
X137888839Y-52865579D01*
X137880390Y-52877346D01*
X137880949Y-52877752D01*
X137877127Y-52883011D01*
X137779857Y-53051488D01*
X137779856Y-53051489D01*
X137719738Y-53236516D01*
X137699402Y-53430000D01*
X137719738Y-53623483D01*
X137779856Y-53808510D01*
X137779857Y-53808511D01*
X137877132Y-53976996D01*
X137880853Y-53982118D01*
X137904331Y-54047925D01*
X137888504Y-54115978D01*
X137880853Y-54127882D01*
X137877132Y-54133003D01*
X137779857Y-54301488D01*
X137779856Y-54301489D01*
X137719738Y-54486516D01*
X137699402Y-54680000D01*
X137719738Y-54873483D01*
X137766429Y-55017182D01*
X137768424Y-55087023D01*
X137732344Y-55146856D01*
X137669643Y-55177684D01*
X137648498Y-55179500D01*
X135962229Y-55179500D01*
X135895190Y-55159815D01*
X135874553Y-55143185D01*
X135723305Y-54991937D01*
X135700643Y-54955870D01*
X135698812Y-54956753D01*
X135695792Y-54950483D01*
X135599815Y-54797737D01*
X135472262Y-54670184D01*
X135319523Y-54574211D01*
X135149254Y-54514631D01*
X135149249Y-54514630D01*
X134970004Y-54494435D01*
X134969996Y-54494435D01*
X134790750Y-54514630D01*
X134790745Y-54514631D01*
X134620476Y-54574211D01*
X134467737Y-54670184D01*
X134340184Y-54797737D01*
X134244211Y-54950476D01*
X134184631Y-55120745D01*
X134184630Y-55120750D01*
X134164435Y-55299996D01*
X124692590Y-55299996D01*
X124690655Y-55288776D01*
X124689509Y-55280438D01*
X124630135Y-54702888D01*
X124629558Y-54694454D01*
X124609737Y-54114215D01*
X124609737Y-54105784D01*
X124629558Y-53525530D01*
X124630134Y-53517113D01*
X124689509Y-52939557D01*
X124690655Y-52931227D01*
X124789304Y-52359073D01*
X124791026Y-52350789D01*
X124798136Y-52321614D01*
X124928485Y-51786722D01*
X124930754Y-51778623D01*
X125060295Y-51370473D01*
X138174025Y-51370473D01*
X138630000Y-51826447D01*
X138630001Y-51826447D01*
X139085973Y-51370473D01*
X138917413Y-51295426D01*
X138727221Y-51255000D01*
X138532779Y-51255000D01*
X138342586Y-51295426D01*
X138342585Y-51295426D01*
X138174025Y-51370473D01*
X125060295Y-51370473D01*
X125106391Y-51225238D01*
X125109225Y-51217264D01*
X125322217Y-50677149D01*
X125325574Y-50669424D01*
X125574927Y-50145108D01*
X125578797Y-50137639D01*
X125863357Y-49631550D01*
X125867742Y-49624339D01*
X126186175Y-49138849D01*
X126191027Y-49131975D01*
X126541844Y-48669353D01*
X126547174Y-48662802D01*
X126928734Y-48225212D01*
X126934484Y-48219055D01*
X127079826Y-48073713D01*
X131899500Y-48073713D01*
X131899500Y-48286286D01*
X131932753Y-48496239D01*
X131998444Y-48698414D01*
X132094951Y-48887820D01*
X132219890Y-49059786D01*
X132370213Y-49210109D01*
X132542179Y-49335048D01*
X132542181Y-49335049D01*
X132542184Y-49335051D01*
X132731588Y-49431557D01*
X132933757Y-49497246D01*
X133143713Y-49530500D01*
X133143714Y-49530500D01*
X133356286Y-49530500D01*
X133356287Y-49530500D01*
X133566243Y-49497246D01*
X133768412Y-49431557D01*
X133957816Y-49335051D01*
X133979789Y-49319086D01*
X134129786Y-49210109D01*
X134129788Y-49210106D01*
X134129792Y-49210104D01*
X134280104Y-49059792D01*
X134280106Y-49059788D01*
X134280109Y-49059786D01*
X134405048Y-48887820D01*
X134405047Y-48887820D01*
X134405051Y-48887816D01*
X134501557Y-48698412D01*
X134567246Y-48496243D01*
X134600500Y-48286287D01*
X134600500Y-48073713D01*
X134567246Y-47863757D01*
X134501557Y-47661588D01*
X134405051Y-47472184D01*
X134405049Y-47472181D01*
X134405048Y-47472179D01*
X134280109Y-47300213D01*
X134129786Y-47149890D01*
X133957820Y-47024951D01*
X133768414Y-46928444D01*
X133768413Y-46928443D01*
X133768412Y-46928443D01*
X133566243Y-46862754D01*
X133566241Y-46862753D01*
X133566240Y-46862753D01*
X133404957Y-46837208D01*
X133356287Y-46829500D01*
X133143713Y-46829500D01*
X133095042Y-46837208D01*
X132933760Y-46862753D01*
X132731585Y-46928444D01*
X132542179Y-47024951D01*
X132370213Y-47149890D01*
X132219890Y-47300213D01*
X132094951Y-47472179D01*
X131998444Y-47661585D01*
X131932753Y-47863760D01*
X131899500Y-48073713D01*
X127079826Y-48073713D01*
X127345033Y-47808506D01*
X127351190Y-47802756D01*
X127788780Y-47421196D01*
X127795331Y-47415866D01*
X128257953Y-47065049D01*
X128264827Y-47060197D01*
X128750317Y-46741764D01*
X128757528Y-46737379D01*
X129263617Y-46452819D01*
X129271086Y-46448949D01*
X129795402Y-46199596D01*
X129803127Y-46196239D01*
X130343245Y-45983245D01*
X130351220Y-45980412D01*
X130904601Y-45804776D01*
X130912700Y-45802507D01*
X131476774Y-45665046D01*
X131485051Y-45663326D01*
X132057205Y-45564677D01*
X132065535Y-45563531D01*
X132643091Y-45504156D01*
X132651508Y-45503580D01*
X133231763Y-45483759D01*
X133240193Y-45483759D01*
X133820445Y-45503580D01*
G37*
%TD.AperFunction*%
%TD*%
M02*
