M48
; DRILL file {KiCad 8.0.3} date 2026-01-07T02:22:53-0500
; FORMAT={-:-/ absolute / inch / decimal}
; #@! TF.CreationDate,2026-01-07T02:22:53-05:00
; #@! TF.GenerationSoftware,Kicad,Pcbnew,8.0.3
; #@! TF.FileFunction,Plated,1,2,PTH
FMAT,2
INCH
; #@! TA.AperFunction,Plated,PTH,ViaDrill
T1C0.0118
; #@! TA.AperFunction,Plated,PTH,ComponentDrill
T2C0.0197
%
G90
G05
T1
X4.9217Y-2.1567
X4.9307Y-2.0858
X4.9555Y-2.2051
X4.9638Y-2.1339
X5.0008Y-2.3059
X5.0083Y-1.987
X5.0189Y-1.915
X5.0323Y-2.3524
X5.05Y-1.948
X5.0567Y-2.2543
X5.0606Y-1.876
X5.0673Y-2.3272
X5.0713Y-2.3941
X5.074Y-2.2209
X5.0953Y-2.2547
X5.0965Y-1.9165
X5.0988Y-2.3736
X5.1024Y-2.0165
X5.1071Y-1.8445
X5.1197Y-1.9831
X5.1378Y-2.4154
X5.1409Y-2.0169
X5.1583Y-2.1953
X5.2083Y-2.0157
X5.3138Y-2.1772
X5.3669Y-1.8803
X5.3675Y-2.0506
X5.3843Y-1.8469
X5.3843Y-2.3287
X5.398Y-2.4118
X5.4016Y-2.2953
X5.4055Y-1.8807
X5.4228Y-2.3291
X5.4398Y-2.3728
X5.4598Y-1.8827
X5.4862Y-2.3413
X5.4913Y-1.9291
X5.524Y-2.2705
X5.5303Y-1.9709
X5.539Y-2.1165
X5.5394Y-2.1972
X5.561Y-2.0736
X5.5669Y-2.1638
T2
X5.4579Y-2.0543
X5.4579Y-2.1035
X5.4579Y-2.1528
X5.4579Y-2.202
M30
